<svg xmlns="http://www.w3.org/2000/svg" width="48" height="48" viewBox="0 0 48 48">
    <g fill="#FFF" fill-rule="evenodd">
        <path d="M0 0v37.445h23.167v8.871H13.074v1.495H34.74v-1.495H24.66v-8.871h23.153V0H0zm1.495 30.597H46.32V1.494H1.495v29.103zm0 5.353H46.32v-3.858H1.495v3.858z"/>
        <path d="M23.632 10.94a.661.661 0 1 0 .967.902h.002l2.96-2.961a2.844 2.844 0 0 1 4.05 0 2.844 2.844 0 0 1 0 4.05l-3.271 3.272a2.844 2.844 0 0 1-4.051 0 .661.661 0 1 0-.935.935 4.191 4.191 0 0 0 5.92 0l3.273-3.271a4.192 4.192 0 0 0 0-5.921 4.191 4.191 0 0 0-5.92 0l-2.961 2.96a.339.339 0 0 0-.034.035zm-6.666 6.666a4.191 4.191 0 0 0 0 5.92 4.191 4.191 0 0 0 5.92 0l2.96-2.96a.661.661 0 0 0-.922-.947l-.012.013-2.96 2.96a2.844 2.844 0 0 1-4.051 0 2.842 2.842 0 0 1 0-4.051l3.272-3.272a2.844 2.844 0 0 1 4.05 0 .66.66 0 1 0 .949-.922l-.013-.013a4.191 4.191 0 0 0-5.92 0l-3.273 3.272z"/>
    </g>
</svg>
