<svg xmlns="http://www.w3.org/2000/svg" width="48" height="48" viewBox="0 0 48 48">
    <g fill="#FFF" fill-rule="evenodd">
        <path d="M0 0v37.445h23.168v8.871H13.074v1.495H34.74v-1.495H24.66v-8.871h23.153V0H0zm1.495 30.597H46.32V1.494H1.495v29.103zm0 5.353H46.32v-3.858H1.495v3.858z"/>
        <path d="M11.684 14.922h8.26v-6.99h-8.26v6.99zm-1.628 1.627h11.516V6.305H10.056v10.244zM24.526 7.932h13.748V6.305H24.526zM24.526 12.241h13.748v-1.627H24.526zM24.526 16.55h13.748v-1.628H24.526zM10.056 20.859h28.218v-1.627H10.056zM10.056 25.167h23.275V23.54H10.056z"/>
    </g>
</svg>
