<svg xmlns="http://www.w3.org/2000/svg" width="48" height="48" viewBox="0 0 48 48">
    <g fill="#FFF" fill-rule="evenodd">
        <path d="M0 0v37.445h23.167v8.871H13.074v1.495H34.74v-1.495H24.66v-8.871h23.153V0H0zm1.495 30.597H46.32V1.494H1.495v29.103zm0 5.353H46.32v-3.858H1.495v3.858z"/>
        <path d="M23.907 20.669l4.696 2.468-.897-5.228 3.799-3.703-5.25-.763-2.348-4.757-2.348 4.757-5.25.763 3.8 3.703-.897 5.228 4.695-2.468zm-6.857 5.443l1.31-7.635-5.548-5.407 7.666-1.114 3.429-6.946 3.429 6.946 7.666 1.114-5.548 5.407 1.31 7.635-6.857-3.604-6.857 3.604z"/>
    </g>
</svg>
